<?xml version="1.0" encoding="UTF-8" standalone="no"?>
<!-- Generator: Adobe Illustrator 18.0.0, SVG Export Plug-In . SVG Version: 6.00 Build 0)  -->

<svg
   version="1.1"
   id="Capa_1"
   x="0px"
   y="0px"
   viewBox="0 0 415.76 415.76"
   style="enable-background:new 0 0 415.76 415.76;"
   xml:space="preserve"
   sodipodi:docname="satellite-svgrepo-com.svg"
   inkscape:version="1.2-alpha1 (b6a15bb, 2022-02-23)"
   inkscape:export-filename="/Users/scott/Documents/Learning/phd-thesis/scratch/satellite1.svg"
   inkscape:export-xdpi="99.9529"
   inkscape:export-ydpi="99.9529"
   xmlns:inkscape="http://www.inkscape.org/namespaces/inkscape"
   xmlns:sodipodi="http://sodipodi.sourceforge.net/DTD/sodipodi-0.dtd"
   xmlns="http://www.w3.org/2000/svg"
   xmlns:svg="http://www.w3.org/2000/svg"><defs
   id="defs124" /><sodipodi:namedview
   id="namedview122"
   pagecolor="#ffffff"
   bordercolor="#666666"
   borderopacity="1.0"
   inkscape:pageshadow="2"
   inkscape:pageopacity="0.0"
   inkscape:pagecheckerboard="0"
   inkscape:deskcolor="#d1d1d1"
   showgrid="false"
   inkscape:zoom="0.38"
   inkscape:cx="419.73684"
   inkscape:cy="309.21053"
   inkscape:window-width="1151"
   inkscape:window-height="797"
   inkscape:window-x="0"
   inkscape:window-y="25"
   inkscape:window-maximized="0"
   inkscape:current-layer="g89" />
<g
   id="g89">
	
	
	
	<path
   d="m 322.938,333.545 c 1.464,1.464 3.384,2.196 5.303,2.196 1.919,0 3.839,-0.732 5.303,-2.197 2.929,-2.929 2.929,-7.678 0,-10.607 l -2.634,-2.634 39.244,-39.244 c 1.407,-1.406 2.197,-3.314 2.197,-5.303 0,-1.989 -0.79,-3.897 -2.197,-5.303 -19.419,-19.419 -47.437,-25.101 -71.907,-17.082 l -11.906,-11.906 18.87,-18.87 c 2.929,-2.929 2.929,-7.678 0,-10.606 l -48.252,-48.252 19.055,-19.055 23.688,23.688 c 1.464,1.464 3.384,2.197 5.303,2.197 1.919,0 3.839,-0.732 5.303,-2.197 l 97.583,-97.583 c 1.407,-1.406 2.197,-3.314 2.197,-5.303 0,-1.989 -0.79,-3.897 -2.197,-5.303 L 349.91,2.197 C 348.504,0.79 346.596,0 344.607,0 342.618,0 340.71,0.79 339.304,2.197 L 241.721,99.78 c -1.407,1.406 -2.197,3.314 -2.197,5.303 0,1.989 0.79,3.897 2.197,5.303 l 23.688,23.688 -19.055,19.055 -36.394,-36.394 c -14.444,-14.443 -36.93,-16.04 -53.167,-4.816 L 139.8,94.927 c -2.929,-2.929 -7.678,-2.929 -10.606,0 l -34.267,34.267 c -1.407,1.406 -2.197,3.314 -2.197,5.303 0,1.989 0.79,3.897 2.197,5.303 l 16.987,16.986 c -4.797,6.913 -7.389,15.102 -7.389,23.694 0,11.136 4.337,21.604 12.211,29.479 l 36.394,36.394 -19.055,19.055 -23.688,-23.688 c -2.929,-2.929 -7.678,-2.929 -10.606,0 L 2.197,339.304 c -2.929,2.929 -2.929,7.678 0,10.606 l 57.983,57.983 c 1.464,1.464 3.384,2.197 5.303,2.197 1.919,0 3.839,-0.732 5.303,-2.197 l 97.583,-97.583 c 2.929,-2.929 2.929,-7.678 0,-10.606 l -23.688,-23.688 19.055,-19.055 48.252,48.252 c 1.406,1.407 3.314,2.197 5.303,2.197 1.989,0 3.897,-0.79 5.303,-2.197 l 18.874,-18.874 11.904,11.904 c -8.021,24.471 -2.341,52.492 17.08,71.913 1.464,1.465 3.384,2.197 5.303,2.197 1.919,0 3.839,-0.732 5.303,-2.197 l 39.244,-39.244 z M 337.485,119.981 290.109,72.605 312.13,50.584 359.506,97.96 Z m 7.122,-101.874 47.376,47.376 -21.872,21.872 -47.376,-47.376 z m -65.105,65.105 47.376,47.376 -21.872,21.872 -47.376,-47.376 z M 72.605,290.108 119.981,337.484 97.96,359.505 50.584,312.129 Z m -7.122,101.875 -47.376,-47.376 21.872,-21.872 47.376,47.376 z m 65.105,-65.105 -47.376,-47.376 21.872,-21.872 47.376,47.376 z m 75.063,-193.238 63.636,63.636 -72.011,72.011 -63.636,-63.636 z m -25.169,-14.102 c 4.886,0 9.77,1.338 14.061,3.998 l -71.012,71.012 c -2.605,-4.183 -4.005,-9.016 -4.005,-14.067 0,-7.129 2.776,-13.831 7.817,-18.872 l 34.267,-34.267 c 5.203,-5.203 12.036,-7.804 18.872,-7.804 z m -45.985,-8.701 11.202,11.202 -11.83,11.83 -11.83,11.83 -11.203,-11.202 z m 82.794,178.466 -9.409,-9.409 72.011,-72.011 9.409,9.409 z m 34.785,-13.57 23.66,-23.66 7.978,7.978 c -4.723,2.868 -9.186,6.325 -13.263,10.401 -4.075,4.075 -7.531,8.537 -10.398,13.258 z m 24.036,78.155 c -16.545,-21.737 -14.896,-52.987 4.946,-72.829 10.82,-10.82 25.032,-16.229 39.245,-16.229 8.10562,0 16.2103,1.75894 23.68597,5.27777 3.4543,1.62595 6.7743,3.62767 9.89803,6.00523 z"
   id="path87"
   sodipodi:nodetypes="cscsccscccscccssccsccsccsccccccccsccscccscscsscsccccsccccsccccccccccccccccccccccccccccccccccccccsccssssccccccccccccccccccssscc" /><path
   d="m 722.89415,220.95909 c 2.929,-2.929 2.929,-7.678 0,-10.606 l -48.252,-48.252 19.055,-19.055 23.688,23.688 c 1.464,1.464 3.384,2.197 5.303,2.197 1.919,0 3.839,-0.732 5.303,-2.197 l 97.583,-97.582996 c 1.407,-1.406 2.197,-3.314 2.197,-5.303 0,-1.989 -0.79,-3.897 -2.197,-5.303 l -57.981,-57.98400036 c -1.406,-1.407 -3.314,-2.19700004 -5.303,-2.19700004 -1.989,0 -3.897,0.79000004 -5.303,2.19700004 l -97.583,97.58300036 c -1.407,1.406 -2.197,3.313996 -2.197,5.302996 0,1.989 0.79,3.897 2.197,5.303 l 23.688,23.688 -19.055,19.055 -36.394,-36.394 c -14.444,-14.443 -36.93,-16.039996 -53.167,-4.816 l -16.993,-16.991996 c -2.929,-2.929 -7.678,-2.929 -10.606,0 l -34.267,34.266996 c -1.407,1.406 -2.197,3.314 -2.197,5.303 0,1.989 0.79,3.897 2.197,5.303 l 16.987,16.986 c -4.797,6.913 -7.389,15.102 -7.389,23.694 0,11.136 4.337,21.604 12.211,29.479 l 36.394,36.394 -19.055,19.055 -23.688,-23.688 c -2.929,-2.929 -7.678,-2.929 -10.606,0 l -97.584,97.584 c -2.929,2.929 -2.929,7.678 0,10.606 l 57.983,57.983 c 1.464,1.464 3.384,2.197 5.303,2.197 1.919,0 3.839,-0.732 5.303,-2.197 l 97.583,-97.583 c 2.929,-2.929 2.929,-7.678 0,-10.606 l -23.688,-23.688 19.055,-19.055 48.252,48.252 c 1.406,1.407 3.314,2.197 5.303,2.197 1.989,0 3.897,-0.79 5.303,-2.197 8.10229,-11.86412 77.37099,-77.37199 82.617,-82.618 z m 32.274,-102.614 -47.376,-47.375996 22.021,-22.021 47.376,47.376 z m 7.122,-101.873996 47.376,47.376 -21.872,21.872 -47.376,-47.376 z m -65.105,65.105 47.376,47.375996 -21.872,21.872 -47.376,-47.376 z m -206.897,206.895996 47.376,47.376 -22.021,22.021 -47.376,-47.376 z m -7.122,101.875 -47.376,-47.376 21.872,-21.872 47.376,47.376 z m 65.105,-65.105 -47.376,-47.376 21.872,-21.872 47.376,47.376 z m 75.063,-193.238 63.636,63.636 -72.011,72.011 -63.636,-63.636 z m -25.169,-14.102 c 4.886,0 9.77,1.338 14.061,3.998 l -71.012,71.012 c -2.605,-4.183 -4.005,-9.016 -4.005,-14.067 0,-7.129 2.776,-13.831 7.817,-18.872 l 34.267,-34.267 c 5.203,-5.203 12.036,-7.804 18.872,-7.804 z m -45.985,-8.701 11.202,11.202 -11.83,11.83 -11.83,11.83 -11.203,-11.202 z m 82.794,178.466 -9.409,-9.409 72.011,-72.011 9.409,9.409 z"
   id="path87-9"
   sodipodi:nodetypes="ccccssccsccsccsccccccccsccscccscscsscsccccscccccccccccccccccccccccccccccccccccccsccssssccccccccccc" />
<path
   style="fill:none;stroke:#000000;stroke-width:10;stroke-linecap:butt;stroke-linejoin:miter;stroke-miterlimit:4;stroke-dasharray:none;stroke-opacity:1"
   d="m 1080.2632,281.57895 11.8421,11.8421 41.4473,-42.10526 -15.1315,-14.47368"
   id="path7805"
   sodipodi:nodetypes="cccc" /><g
   id="g16586"
   inkscape:export-filename="/Users/scott/Documents/Learning/phd-thesis/scratch/g16586.svg"
   inkscape:export-xdpi="99.9529"
   inkscape:export-ydpi="99.9529"><path
     d="m 1144.9037,222.81316 c 2.929,-2.929 2.929,-7.678 0,-10.606 l -48.252,-48.252 19.055,-19.055 23.688,23.688 c 1.464,1.464 3.384,2.197 5.303,2.197 1.919,0 3.839,-0.732 5.303,-2.197 l 97.583,-97.583 c 1.407,-1.406 2.197,-3.314 2.197,-5.303 0,-1.989 -0.79,-3.897 -2.197,-5.303 l -57.981,-57.9839995 c -1.406,-1.407 -3.314,-2.19700001 -5.303,-2.19700001 -1.989,0 -3.897,0.79000001 -5.303,2.19700001 l -97.583,97.5829985 c -1.407,1.406001 -2.197,3.314001 -2.197,5.303001 0,1.989 0.79,3.897 2.197,5.303 l 23.688,23.688 -19.055,19.055 -36.394,-36.394 c -14.444,-14.443 -36.93,-16.04 -53.16698,-4.816 l -16.993,-16.992001 c -2.929,-2.929 -7.678,-2.929 -10.606,0 l -34.267,34.267001 c -1.407,1.406 -2.197,3.314 -2.197,5.303 0,1.989 0.79,3.897 2.197,5.303 l 16.987,16.986 c -4.797,6.913 -7.389,15.102 -7.389,23.694 0,11.136 4.337,21.604 12.211,29.479 l 36.394,36.394 -19.055,19.055 -23.688,-23.688 c -2.929,-2.929 -7.678,-2.929 -10.606,0 l -97.584,97.584 c -2.929,2.929 -2.929,7.678 0,10.606 l 57.983,57.983 c 1.464,1.464 3.384,2.197 5.303,2.197 1.919,0 3.839,-0.732 5.303,-2.197 l 97.58298,-97.583 c 2.929,-2.929 2.929,-7.678 0,-10.606 l -23.68798,-23.688 19.05498,-19.055 48.252,48.252 c 1.406,1.407 3.314,2.197 5.303,2.197 1.989,0 3.897,-0.79 5.303,-2.197 8.1023,-11.86412 77.371,-77.37199 82.617,-82.618 z m 32.274,-102.614 -47.376,-47.376 22.021,-22.021 47.376,47.375999 z m 7.122,-101.874 47.376,47.376 -21.872,21.871999 -47.376,-47.375999 z m -65.105,65.104999 47.376,47.376001 -21.872,21.872 -47.376,-47.376 z m -206.89698,206.896001 47.376,47.376 -22.021,22.021 -47.376,-47.376 z m -7.122,101.875 -47.376,-47.376 21.872,-21.872 47.376,47.376 z m 65.105,-65.105 -47.376,-47.376 21.872,-21.872 47.376,47.376 z m 75.06298,-193.238 63.636,63.636 -72.011,72.011 -63.63598,-63.636 z m -25.169,-14.102 c 4.886,0 9.77,1.338 14.061,3.998 l -71.01198,71.012 c -2.605,-4.183 -4.005,-9.016 -4.005,-14.067 0,-7.129 2.776,-13.831 7.817,-18.872 l 34.26698,-34.267 c 5.203,-5.203 12.036,-7.804 18.872,-7.804 z m -45.98498,-8.701 11.202,11.202 -11.83,11.83 -11.83,11.83 -11.203,-11.202 z m 82.79398,178.466 -9.409,-9.409 72.011,-72.011 9.409,9.409 z"
     id="path87-9-0"
     sodipodi:nodetypes="ccccssccsccsccsccccccccsccscccscscsscsccccscccccccccccccccccccccccccccccccccccccsccssssccccccccccc" /><path
     style="fill:none;stroke:#000000;stroke-width:10;stroke-linecap:butt;stroke-linejoin:miter;stroke-miterlimit:4;stroke-dasharray:none;stroke-opacity:1"
     d="m 1093.4211,290.78948 15.7894,49.3421 69.079,-75 -46.0527,-15.78947"
     id="path9335"
     sodipodi:nodetypes="cccc" /></g><rect
   style="fill:#b3b3b3;stroke-width:10;stroke-miterlimit:4;stroke-dasharray:none"
   id="rect12622"
   width="426.3158"
   height="176.3158"
   x="234.21053"
   y="768.42108" /><rect
   style="fill:#4d4d4d;stroke-width:10;stroke-miterlimit:4;stroke-dasharray:none"
   id="rect13350"
   width="252.63158"
   height="134.21053"
   x="302.63159"
   y="710.52631" /></g>
<g
   id="g91">
</g>
<g
   id="g93">
</g>
<g
   id="g95">
</g>
<g
   id="g97">
</g>
<g
   id="g99">
</g>
<g
   id="g101">
</g>
<g
   id="g103">
</g>
<g
   id="g105">
</g>
<g
   id="g107">
</g>
<g
   id="g109">
</g>
<g
   id="g111">
</g>
<g
   id="g113">
</g>
<g
   id="g115">
</g>
<g
   id="g117">
</g>
<g
   id="g119">
</g>
</svg>
